<svg width="32" height="32" viewBox="0 0 32 32" fill="none" xmlns="http://www.w3.org/2000/svg">
<path fill-rule="evenodd" clip-rule="evenodd" d="M20 6.5H24C24.8284 6.5 25.5 7.17157 25.5 8V12C25.5 12.8284 24.8284 13.5 24 13.5H20C19.1716 13.5 18.5 12.8284 18.5 12V8C18.5 7.17157 19.1716 6.5 20 6.5ZM17 8C17 6.34315 18.3431 5 20 5H24C25.6569 5 27 6.34315 27 8V12C27 13.6569 25.6569 15 24 15H20C18.3431 15 17 13.6569 17 12V8ZM12 18.5C12.8284 18.5 13.5 19.1716 13.5 20V24C13.5 24.8284 12.8284 25.5 12 25.5H8C7.17157 25.5 6.5 24.8284 6.5 24V20C6.5 19.1716 7.17157 18.5 8 18.5H12ZM5 20C5 18.3431 6.34315 17 8 17H12C13.6569 17 15 18.3431 15 20V24C15 25.6569 13.6569 27 12 27H8C6.34315 27 5 25.6569 5 24V20ZM10 13.5C11.933 13.5 13.5 11.933 13.5 10C13.5 8.067 11.933 6.5 10 6.5C8.067 6.5 6.5 8.067 6.5 10C6.5 11.933 8.067 13.5 10 13.5ZM10 15C12.7614 15 15 12.7614 15 10C15 7.23858 12.7614 5 10 5C7.23858 5 5 7.23858 5 10C5 12.7614 7.23858 15 10 15ZM25.5 22C25.5 23.933 23.933 25.5 22 25.5C20.067 25.5 18.5 23.933 18.5 22C18.5 20.067 20.067 18.5 22 18.5C23.933 18.5 25.5 20.067 25.5 22ZM27 22C27 24.7614 24.7614 27 22 27C19.2386 27 17 24.7614 17 22C17 19.2386 19.2386 17 22 17C24.7614 17 27 19.2386 27 22Z" fill="black"/>
</svg>
