<svg width="24" height="24" viewBox="0 0 24 24" fill="none" xmlns="http://www.w3.org/2000/svg">
<path fill-rule="evenodd" clip-rule="evenodd" d="M12.0002 16C14.2094 16 16.0002 14.2091 16.0002 12C16.0002 9.79086 14.2094 8 12.0002 8C9.7911 8 8.00024 9.79086 8.00024 12C8.00024 14.2091 9.7911 16 12.0002 16ZM12.0002 14.5C13.3809 14.5 14.5002 13.3807 14.5002 12C14.5002 10.6193 13.3809 9.5 12.0002 9.5C10.6195 9.5 9.50024 10.6193 9.50024 12C9.50024 13.3807 10.6195 14.5 12.0002 14.5Z" fill="black"/>
<path fill-rule="evenodd" clip-rule="evenodd" d="M15.1182 1.86489L15.5203 4.81406C15.8475 4.97464 16.1621 5.1569 16.4623 5.35898L19.2185 4.23223C19.6814 4.043 20.2129 4.2248 20.463 4.65787L22.5901 8.34213C22.8401 8.77521 22.7318 9.3264 22.3365 9.63266L19.9821 11.4566C19.9941 11.6362 20.0002 11.8174 20.0002 12C20.0002 12.1826 19.9941 12.3638 19.9821 12.5434L22.3365 14.3673C22.7318 14.6736 22.8401 15.2248 22.5901 15.6579L20.463 19.3421C20.2129 19.7752 19.6814 19.957 19.2185 19.7678L16.4623 18.641C16.1621 18.8431 15.8475 19.0254 15.5203 19.1859L15.1182 22.1351C15.0506 22.6306 14.6274 23 14.1273 23H9.87313C9.37306 23 8.94987 22.6306 8.8823 22.1351L8.48014 19.1859C8.15296 19.0254 7.83835 18.8431 7.53818 18.641L4.78195 19.7678C4.31907 19.957 3.78756 19.7752 3.53752 19.3421L1.41042 15.6579C1.16038 15.2248 1.26869 14.6736 1.66401 14.3673L4.01841 12.5434C4.00636 12.3638 4.00025 12.1826 4.00025 12C4.00025 11.8174 4.00636 11.6362 4.01841 11.4566L1.66401 9.63266C1.26869 9.3264 1.16038 8.77521 1.41041 8.34213L3.53752 4.65787C3.78755 4.2248 4.31906 4.043 4.78195 4.23223L7.53818 5.35898C7.83835 5.1569 8.15296 4.97464 8.48014 4.81406L8.8823 1.86489C8.94987 1.3694 9.37306 1 9.87313 1H14.1273C14.6274 1 15.0506 1.3694 15.1182 1.86489ZM14.1421 5.80854L14.8595 6.16063C15.1251 6.29098 15.3806 6.43902 15.6246 6.60328L16.2888 7.05042L19.3822 5.78584L21.0728 8.71416L18.432 10.76L18.4854 11.557C18.4952 11.7032 18.5002 11.8509 18.5002 12C18.5002 12.1491 18.4952 12.2968 18.4854 12.443L18.432 13.24L21.0728 15.2858L19.3822 18.2142L16.2888 16.9496L15.6246 17.3967C15.3806 17.561 15.1251 17.709 14.8595 17.8394L14.1421 18.1915L13.6909 21.5H10.3096L9.85841 18.1915L9.14101 17.8394C8.87543 17.709 8.61987 17.561 8.37587 17.3967L7.7117 16.9496L4.61834 18.2142L2.92768 15.2858L5.5685 13.24L5.51505 12.443C5.50524 12.2968 5.50024 12.1491 5.50024 12C5.50024 11.8509 5.50524 11.7032 5.51505 11.557L5.5685 10.76L2.92767 8.71416L4.61834 5.78584L7.7117 7.05042L8.37587 6.60328C8.61986 6.43902 8.87543 6.29098 9.14102 6.16063L9.85841 5.80854L10.3096 2.5H13.6909L14.1421 5.80854Z" fill="black"/>
</svg>
