<svg width="18" height="20" viewBox="0 0 18 20" fill="none" xmlns="http://www.w3.org/2000/svg">
<path fill-rule="evenodd" clip-rule="evenodd" d="M3 1.75C2.17157 1.75 1.5 2.42157 1.5 3.25L1.5 16.75C1.5 17.5784 2.17157 18.25 3 18.25H9C9.82843 18.25 10.5 17.5784 10.5 16.75V13C10.5 12.5858 10.8358 12.25 11.25 12.25C11.6642 12.25 12 12.5858 12 13V16.75C12 18.4069 10.6569 19.75 9 19.75H3C1.34315 19.75 -8.9407e-08 18.4069 0 16.75L5.81145e-07 3.25C6.70552e-07 1.59315 1.34315 0.25 3 0.25L9 0.25C10.6569 0.25 12 1.59315 12 3.25V7C12 7.41421 11.6642 7.75 11.25 7.75C10.8358 7.75 10.5 7.41421 10.5 7V3.25C10.5 2.42157 9.82843 1.75 9 1.75L3 1.75ZM13.7197 6.46967C14.0126 6.17678 14.4874 6.17678 14.7803 6.46967L17.7803 9.46967C18.0732 9.76257 18.0732 10.2374 17.7803 10.5303L14.7803 13.5303C14.4874 13.8232 14.0126 13.8232 13.7197 13.5303C13.4268 13.2374 13.4268 12.7626 13.7197 12.4697L15.4393 10.75L4.5 10.75C4.08579 10.75 3.75 10.4142 3.75 10C3.75 9.58579 4.08579 9.25 4.5 9.25L15.4393 9.25L13.7197 7.53033C13.4268 7.23744 13.4268 6.76256 13.7197 6.46967Z" fill="black"/>
</svg>
